<svg width="746" height="746" viewBox="0 0 746 746" fill="none" xmlns="http://www.w3.org/2000/svg">
<g clip-path="url(#clip0_3444_18101)">
<path d="M677.289 115.564C712.626 136.218 741.092 186.377 741.092 227.685C741.092 268.993 712.626 285.713 677.289 265.059C641.952 244.405 613.486 194.245 613.486 152.937C613.486 111.63 641.952 94.9097 677.289 115.564Z" stroke="#9333EA" stroke-width="2"/>
<path d="M672.382 155.888V190.311L696.921 224.734" stroke="#9333EA" stroke-width="2" stroke-linecap="round"/>
<path d="M321.467 35.4067V137.693L2.4541 322.595V203.097C2.4541 203.097 2.4541 202.605 2.4541 201.13C2.4541 178.017 15.2146 174.083 33.3738 184.902C37.3002 186.869 46.6252 184.902 49.5699 187.852L321.467 35.4067Z" fill="white" stroke="#101C4F" stroke-linecap="round" stroke-linejoin="round"/>
<path d="M227.236 629.453C227.236 629.453 102.575 556.672 102.085 556.181C81.4715 542.903 68.2202 520.774 66.7479 496.678C66.7479 496.678 66.7479 283.746 66.7479 243.421C66.7479 221.292 51.0426 194.245 31.411 182.935C26.0123 179.492 17.6689 177.034 10.7979 180.476L311.652 5.40936C311.652 5.40936 322.94 -0.983516 338.154 7.86816C357.786 19.1786 374.964 46.2254 374.964 68.3546C374.964 68.8464 374.964 285.221 374.964 319.644C376.436 344.724 388.215 367.345 408.828 380.622C455.453 407.177 529.562 448.977 529.562 448.977L227.236 629.453Z" fill="white" stroke="#101C4F" stroke-width="0.9637" stroke-linecap="round" stroke-linejoin="round"/>
<path d="M215.947 529.626C215.947 529.626 260.609 509.463 250.303 534.543C239.996 559.623 219.383 579.293 245.395 559.131C271.406 538.969 269.934 519.79 269.934 519.79C269.934 519.79 261.591 545.854 284.658 534.543C307.725 523.233 292.02 495.694 304.289 505.038C316.559 514.381 321.467 521.266 333.737 505.038" stroke="#101C4F" stroke-linecap="round" stroke-linejoin="round"/>
<path d="M390.178 367.837C390.178 367.837 318.032 316.693 468.704 155.888C493.734 129.333 682.688 -30.4891 719.498 5.90112C756.307 42.2914 611.033 133.267 552.629 238.995C475.084 376.688 402.938 372.754 402.938 372.754L390.178 367.837Z" fill="url(#paint0_linear_3444_18101)"/>
<path d="M328.829 509.955C328.829 509.955 389.687 365.378 424.042 295.056C493.244 153.921 639.499 65.4041 639.499 65.4041C639.499 65.4041 492.753 188.344 443.674 285.221C410.791 350.133 358.767 475.04 358.767 475.04L328.829 509.955Z" fill="#9CC1FD"/>
<path d="M191.408 641.747C191.408 641.747 193.371 666.335 163.433 685.513C127.114 708.626 65.275 707.151 27.975 685.513C6.87105 673.711 0 658.467 0 642.73V534.543C1.96316 522.249 11.7789 509.955 27.975 500.612C65.275 478.974 126.133 478.974 163.433 500.612C180.12 509.955 188.954 522.249 190.917 534.543H191.408V641.747Z" fill="url(#paint1_linear_3444_18101)"/>
<path d="M27.975 500.612C65.275 478.974 126.133 478.974 163.433 500.612C200.733 522.249 200.733 556.672 163.433 578.31C126.133 599.947 65.275 599.947 27.975 578.31C-9.325 556.672 -9.325 521.757 27.975 500.612Z" fill="url(#paint2_linear_3444_18101)"/>
<path d="M147.236 528.15C147.236 536.018 141.838 543.395 131.531 549.788C107.482 561.59 79.5074 561.59 54.968 549.788C44.1706 543.887 39.2627 536.018 39.2627 528.15V500.12C42.2074 492.744 47.6061 487.334 54.968 484.384C79.0166 473.073 106.992 473.073 131.531 484.384C139.875 488.81 145.764 494.219 147.236 500.612V528.15Z" fill="url(#paint3_linear_3444_18101)"/>
<path d="M65.2751 491.268C82.9435 483.4 103.066 483.4 120.734 491.268C135.949 499.137 135.949 511.43 120.734 518.807C103.066 526.675 82.9435 526.675 65.2751 518.807C50.0606 510.939 50.0606 498.645 65.2751 491.268Z" fill="#79A5EB"/>
<path d="M467.722 473.565L718.025 332.43C726.859 327.512 741.583 343.74 741.583 343.74L473.612 746C473.612 746 451.526 741.082 451.526 732.722V498.645C452.508 487.826 458.888 478.483 467.722 473.565Z" fill="#5908A2"/>
<path d="M482.446 484.803L729.804 346.618C738.638 341.701 746 344.651 746 353.011V582.171C745.018 592.498 739.129 601.842 729.804 606.759L482.446 744.944C473.612 749.862 466.25 746.911 466.25 738.551V509.391C467.232 499.064 473.121 489.72 482.446 484.803Z" fill="#9333EA"/>
<path d="M132.514 458.32C131.532 458.32 131.041 457.829 130.55 456.845C130.06 455.862 130.55 454.386 131.532 453.403L298.4 359.968C299.382 359.477 300.854 359.968 301.836 360.952C302.327 361.935 301.836 363.411 300.854 364.394L133.986 457.829C133.495 458.32 133.004 458.32 132.514 458.32ZM132.514 418.98C131.532 418.98 131.041 418.488 130.55 417.504C130.06 416.521 130.06 415.045 131.532 414.062L337.664 296.04C338.645 295.548 340.117 295.548 341.099 297.023C342.081 298.498 341.59 299.482 340.117 300.465L133.986 418.488C133.495 418.98 133.004 418.98 132.514 418.98ZM132.514 379.639C131.532 379.639 131.041 379.147 130.55 378.164C130.06 377.18 130.06 375.705 131.532 374.721L337.664 256.699C338.645 256.207 340.117 256.207 341.099 257.682C341.59 258.666 341.59 260.141 340.117 261.125L133.986 379.147C133.495 379.639 133.004 379.639 132.514 379.639ZM132.514 340.298C131.532 340.298 131.041 339.806 130.55 338.823C130.06 337.839 130.06 336.364 131.532 335.38L337.664 217.358C338.645 216.866 340.117 216.866 341.099 218.341C342.081 219.817 341.59 220.8 340.117 221.784L133.986 339.806C133.495 340.298 133.004 340.298 132.514 340.298ZM132.514 300.957C131.532 300.957 131.041 300.465 130.55 299.482C130.06 298.498 130.06 297.023 131.532 296.04L337.664 178.017C338.645 177.525 340.117 177.525 341.099 179.001C341.59 179.984 341.59 181.459 340.117 182.443L133.986 300.465C133.495 300.957 133.004 300.957 132.514 300.957ZM132.514 261.616C131.532 261.616 131.041 261.125 130.55 260.141C130.06 259.158 130.55 257.682 131.532 256.699L219.874 207.523C220.856 207.031 222.328 207.523 223.31 208.506C223.8 209.49 223.31 210.965 222.328 211.949L133.986 261.125C133.495 261.616 133.004 261.616 132.514 261.616Z" fill="url(#paint4_linear_3444_18101)"/>
<path d="M587.272 579.55L649.301 471.902C651.229 468.557 653.682 466.022 656.661 464.299C659.64 462.576 662.093 462.272 664.02 463.387C665.948 464.502 666.912 466.782 666.912 470.229C666.912 473.675 665.948 477.071 664.02 480.416L594.631 600.836C592.528 604.485 590.075 607.12 587.272 608.742C584.468 610.364 582.015 610.567 579.912 609.351L552.577 593.539C550.649 592.424 549.686 590.143 549.686 586.697C549.686 583.25 550.649 579.855 552.577 576.51C554.504 573.165 556.957 570.631 559.936 568.907C562.915 567.184 565.368 566.88 567.296 567.995L587.272 579.55Z" fill="white"/>
</g>
<defs>
<linearGradient id="paint0_linear_3444_18101" x1="373" y1="186.492" x2="725.047" y2="186.492" gradientUnits="userSpaceOnUse">
<stop stop-color="#AFCDFD"/>
<stop offset="1" stop-color="#D7E6FE"/>
</linearGradient>
<linearGradient id="paint1_linear_3444_18101" x1="0" y1="593.249" x2="191.44" y2="593.249" gradientUnits="userSpaceOnUse">
<stop stop-color="#AFCDFD"/>
<stop offset="1" stop-color="#D7E6FE"/>
</linearGradient>
<linearGradient id="paint2_linear_3444_18101" x1="-0.0369949" y1="539.19" x2="191.298" y2="539.19" gradientUnits="userSpaceOnUse">
<stop stop-color="#97BEFC"/>
<stop offset="1" stop-color="#ABCAFF"/>
</linearGradient>
<linearGradient id="paint3_linear_3444_18101" x1="39.2598" y1="517.116" x2="147.236" y2="517.116" gradientUnits="userSpaceOnUse">
<stop stop-color="#AFCDFD"/>
<stop offset="1" stop-color="#D7E6FE"/>
</linearGradient>
<linearGradient id="paint4_linear_3444_18101" x1="130.059" y1="318.115" x2="341.1" y2="318.115" gradientUnits="userSpaceOnUse">
<stop stop-color="#AFCDFD"/>
<stop offset="1" stop-color="#D7E6FE"/>
</linearGradient>
<clipPath id="clip0_3444_18101">
<rect width="746" height="746" fill="white"/>
</clipPath>
</defs>
</svg>
