<svg width="30" height="30" viewBox="0 0 30 30" fill="none" xmlns="http://www.w3.org/2000/svg">
<path d="M15 0C11.0218 0 7.20644 1.58035 4.3934 4.3934C1.58035 7.20644 0 11.0218 0 15C0 18.9782 1.58035 22.7936 4.3934 25.6066C7.20644 28.4196 11.0218 30 15 30C18.9782 30 22.7936 28.4196 25.6066 25.6066C28.4196 22.7936 30 18.9782 30 15C30 11.0218 28.4196 7.20644 25.6066 4.3934C22.7936 1.58035 18.9782 0 15 0Z" fill="#3F51B5"/>
<path d="M19.026 15H16.5V24H12.75V15H10.5V12H12.75V10.1925C12.7515 7.5615 13.8442 6 16.944 6H19.5V9H17.7847C16.578 9 16.5 9.45 16.5 10.2922V12H19.5L19.026 15Z" fill="white"/>
</svg>
